<svg width="62" height="62" viewBox="0 0 62 62" fill="none" xmlns="http://www.w3.org/2000/svg">
<rect x="1" y="1" width="60" height="60" rx="30" fill="#FFEDB6" stroke="#FFEDB6"/>
<path d="M20.6673 17.5625C20.2114 17.5876 19.8388 17.9354 19.7823 18.3885C19.0478 24.2022 19.3602 28.9377 21.0324 33.1047C22.7045 37.2719 25.7189 40.8105 30.2028 44.2885C30.5435 44.5529 31.02 44.5529 31.3606 44.2885C35.8481 40.8077 38.8147 37.2501 40.461 33.0789C42.1074 28.9075 42.416 24.182 41.7774 18.4032C41.7006 17.7205 40.9435 17.3459 40.3541 17.699C36.8197 19.831 33.5792 19.7659 31.4123 17.8059C31.053 17.4818 30.5068 17.4818 30.1475 17.8059C27.9806 19.7667 24.7437 19.8318 21.2094 17.699C21.0466 17.5998 20.8576 17.5523 20.6673 17.5625ZM30.778 19.5906C33.2706 21.4249 36.6149 21.2684 39.9337 19.7381C40.3759 24.756 40.0918 28.8742 38.7059 32.3857C37.2897 35.9737 34.693 39.0868 30.778 42.2457C26.8568 39.086 24.2196 35.9784 22.7839 32.4004C21.3765 28.8931 21.0971 24.7782 21.615 19.7344C24.9363 21.2693 28.2829 21.4249 30.778 19.5906ZM34.9632 27.0022C34.7177 27.01 34.4849 27.1131 34.3142 27.2898L29.3326 32.2714L27.1829 30.1217C27.0959 30.0311 26.9917 29.9587 26.8764 29.9089C26.7611 29.8591 26.6371 29.8328 26.5115 29.8315C26.3859 29.8302 26.2613 29.854 26.145 29.9015C26.0288 29.9489 25.9231 30.0191 25.8343 30.1079C25.7455 30.1968 25.6753 30.3024 25.6279 30.4187C25.5804 30.5349 25.5566 30.6595 25.5579 30.7851C25.5591 30.9107 25.5855 31.0347 25.6353 31.15C25.6851 31.2653 25.7574 31.3695 25.848 31.4565L28.6652 34.2773C28.7529 34.3655 28.8572 34.4355 28.972 34.4832C29.0869 34.5309 29.2101 34.5555 29.3344 34.5555C29.4588 34.5555 29.582 34.5309 29.6968 34.4832C29.8117 34.4355 29.916 34.3655 30.0037 34.2773L35.649 28.6209C35.7848 28.4882 35.8773 28.3177 35.9147 28.1315C35.952 27.9454 35.9324 27.7524 35.8583 27.5776C35.7843 27.4028 35.6592 27.2544 35.4995 27.1517C35.3399 27.0491 35.1529 26.997 34.9632 27.0022Z" fill="#F1BB16"/>
</svg>
