<svg width="196" height="60" viewBox="0 0 196 60" fill="none" xmlns="http://www.w3.org/2000/svg">
<path d="M193.49 52.0671C193.49 52.7942 193.347 53.5142 193.071 54.1859C192.794 54.8576 192.389 55.4679 191.878 55.9817C191.366 56.4956 190.76 56.9031 190.092 57.1808C189.425 57.4585 188.709 57.6011 187.987 57.6004H7.89957C6.43995 57.6019 5.03949 57.0198 4.00618 55.9822C2.97286 54.9445 2.39131 53.5363 2.3894 52.0671V7.94134C2.39131 6.47151 2.97263 5.0625 4.00574 4.02371C5.03885 2.98492 6.43929 2.40126 7.89957 2.40088H187.985C188.708 2.40088 189.424 2.5442 190.091 2.82265C190.759 3.1011 191.366 3.50923 191.877 4.02373C192.388 4.53823 192.793 5.14902 193.07 5.82121C193.346 6.4934 193.488 7.21383 193.488 7.94134L193.49 52.0671Z" fill="white"/>
<path d="M189.014 59.9999H6.86529C5.04663 59.9995 3.3024 59.2535 2.01532 57.9255C0.728247 56.5976 0.00346041 54.7962 0 52.9165L0 7.09137C0.00269044 5.21083 0.726998 3.40817 2.01403 2.07884C3.30107 0.749515 5.04573 0.00207553 6.86529 0.000488281L189.012 0.000488281C190.832 0.00286753 192.576 0.750561 193.863 2.07972C195.15 3.40887 195.874 5.21107 195.878 7.09137V52.9165C195.881 56.8236 192.796 59.9999 189.014 59.9999Z" fill="black"/>
<path d="M193.49 52.0671C193.49 52.7942 193.347 53.5142 193.071 54.1859C192.794 54.8576 192.389 55.4679 191.878 55.9817C191.366 56.4956 190.76 56.9031 190.092 57.1808C189.425 57.4585 188.709 57.6011 187.987 57.6004H7.89957C6.43995 57.6019 5.03949 57.0198 4.00618 55.9822C2.97286 54.9445 2.39131 53.5363 2.3894 52.0671V7.94134C2.39131 6.47151 2.97263 5.0625 4.00574 4.02371C5.03885 2.98492 6.43929 2.40126 7.89957 2.40088H187.985C188.708 2.40088 189.424 2.5442 190.091 2.82265C190.759 3.1011 191.366 3.50923 191.877 4.02373C192.388 4.53823 192.793 5.14902 193.07 5.82121C193.346 6.4934 193.488 7.21383 193.488 7.94134L193.49 52.0671Z" fill="black"/>
<path d="M40.0383 29.6816C39.9952 24.8462 43.9639 22.4938 44.1454 22.3843C41.8977 19.0792 38.4139 18.6276 37.1897 18.5916C34.2637 18.281 31.4255 20.3574 29.935 20.3574C28.4147 20.3574 26.1194 18.6216 23.6457 18.6726C20.4623 18.7221 17.4843 20.5809 15.851 23.4675C12.4802 29.353 14.9942 38.0021 18.2236 42.7595C19.8391 45.0909 21.7267 47.6909 24.1975 47.5993C26.6148 47.5003 27.5177 46.0466 30.4348 46.0466C33.3251 46.0466 34.173 47.5994 36.6928 47.5408C39.2871 47.5003 40.9204 45.2004 42.4794 42.8495C44.3462 40.1805 45.0959 37.549 45.1257 37.414C45.0662 37.393 40.0889 35.4756 40.0383 29.6816ZM35.2782 15.462C36.5783 13.8222 37.4678 11.5913 37.2209 9.32739C35.3392 9.41141 32.9859 10.6401 31.6308 12.2439C30.4318 13.6572 29.3608 15.9736 29.6375 18.152C31.7512 18.311 33.9216 17.0763 35.2782 15.462Z" fill="white"/>
<path d="M188.896 0L88.9265 0L128.083 59.9944H188.896C190.76 59.9928 192.548 59.2459 193.866 57.9173C195.185 56.5887 195.927 54.787 195.931 52.9071V7.09029C195.928 5.21002 195.185 3.40775 193.867 2.07862C192.548 0.749488 190.761 0.00198324 188.896 0V0Z" fill="url(#paint0_linear)"/>
<path d="M75.0511 47.267H71.6729L69.8224 41.4025H63.3903L61.6276 47.267H58.3386L64.7127 27.3014H68.6487L75.0511 47.267ZM69.2646 38.942L67.5911 33.7286C67.4141 33.196 67.0809 31.9418 66.593 29.9674H66.5335C66.3371 30.8166 66.0232 32.0708 65.5933 33.7286L63.9481 38.942H69.2646ZM91.411 39.8917C91.411 42.3402 90.752 44.2755 89.4326 45.6963C88.2515 46.961 86.7833 47.5926 85.0324 47.5926C83.1418 47.5926 81.7822 46.913 80.9566 45.5507V53.1046H77.7852V37.6023C77.7852 36.0645 77.745 34.4877 77.6677 32.8704H80.4568L80.6338 35.1523H80.6933C81.7509 33.433 83.356 32.5734 85.5099 32.5734C87.1938 32.5734 88.5995 33.244 89.7241 34.5867C90.8472 35.9325 91.411 37.6998 91.411 39.8917ZM88.1801 40.0087C88.1801 38.6075 87.8677 37.4523 87.2399 36.5416C86.5542 35.5949 85.6334 35.1208 84.4791 35.1208C83.6966 35.1208 82.9856 35.3849 82.3504 35.9055C81.7137 36.4306 81.2972 37.1162 81.1024 37.9654C81.0154 38.2829 80.9659 38.6098 80.9551 38.939V41.341C80.9551 42.3867 81.2734 43.2703 81.9101 43.9935C82.5468 44.7136 83.3738 45.0752 84.3913 45.0752C85.5858 45.0752 86.5155 44.6086 87.1804 43.6829C87.8469 42.7542 88.1801 41.53 88.1801 40.0087ZM107.829 39.8917C107.829 42.3402 107.17 44.2755 105.85 45.6963C104.668 46.961 103.201 47.5926 101.449 47.5926C99.5582 47.5926 98.1986 46.913 97.373 45.5507V53.1046H94.2016V37.6023C94.2016 36.0645 94.1614 34.4877 94.0841 32.8704H96.8732L97.0502 35.1523H97.1097C98.1659 33.433 99.7709 32.5734 101.926 32.5734C103.609 32.5734 105.015 33.244 106.142 34.5867C107.264 35.9325 107.829 37.6998 107.829 39.8917ZM104.597 40.0087C104.597 38.6075 104.283 37.4523 103.655 36.5416C102.969 35.5949 102.051 35.1208 100.897 35.1208C100.115 35.1208 99.4035 35.3849 98.7654 35.9055C98.1287 36.4306 97.7137 37.1162 97.5188 37.9654C97.4221 38.3614 97.3701 38.684 97.3701 38.939V41.341C97.3701 42.3867 97.6899 43.2703 98.3236 43.9935C98.9602 44.7121 99.7873 45.0752 100.808 45.0752C102.004 45.0752 102.933 44.6086 103.597 43.6829C104.263 42.7542 104.597 41.53 104.597 40.0087ZM126.185 41.6665C126.185 43.3663 125.596 44.7481 124.425 45.8148C123.137 46.979 121.339 47.5626 119.033 47.5626C116.903 47.5626 115.195 47.1485 113.907 46.3189L114.64 43.6529C116.031 44.484 117.559 44.8981 119.222 44.8981C120.418 44.8981 121.348 44.6251 122.011 44.0835C122.676 43.5404 123.012 42.8142 123.012 41.9081C123.012 41.0964 122.734 40.4168 122.188 39.8632C121.639 39.3111 120.732 38.7965 119.457 38.3239C115.991 37.0202 114.257 35.1133 114.257 32.6049C114.257 30.9666 114.869 29.6253 116.092 28.5766C117.315 27.5295 118.936 27.0059 120.953 27.0059C122.755 27.0059 124.256 27.3224 125.447 27.954L124.651 30.5615C123.53 29.9494 122.264 29.6433 120.848 29.6433C119.729 29.6433 118.852 29.9209 118.224 30.473C117.696 30.9666 117.428 31.5682 117.428 32.2823C117.428 33.07 117.733 33.7241 118.34 34.2372C118.866 34.7098 119.827 35.2244 121.217 35.7765C122.921 36.4696 124.174 37.2767 124.976 38.2039C125.783 39.1311 126.185 40.2878 126.185 41.6665ZM136.698 35.2709H133.202V42.2606C133.202 44.0385 133.818 44.9251 135.052 44.9251C135.619 44.9251 136.089 44.8771 136.461 44.7766L136.549 47.2055C135.924 47.4411 135.101 47.5596 134.082 47.5596C132.83 47.5596 131.851 47.174 131.145 46.4029C130.441 45.6318 130.087 44.34 130.087 42.5217V35.2649H128.004V32.8644H130.087V30.2284L133.202 29.2803V32.8644H136.698V35.2709ZM152.439 39.9502C152.439 42.1631 151.811 43.98 150.558 45.4007C149.248 46.8635 147.504 47.5926 145.331 47.5926C143.234 47.5926 141.566 46.892 140.323 45.4922C139.079 44.0895 138.457 42.3222 138.457 40.1903C138.457 37.9594 139.1 36.132 140.381 34.7113C141.664 33.289 143.393 32.5779 145.566 32.5779C147.661 32.5779 149.343 33.28 150.616 34.6813C151.833 36.0405 152.439 37.7958 152.439 39.9502ZM149.151 40.0237C149.151 38.705 148.869 37.5738 148.302 36.6271C147.637 35.4839 146.685 34.9123 145.452 34.9123C144.181 34.9123 143.207 35.4839 142.544 36.6271C141.975 37.5738 141.693 38.7245 141.693 40.0837C141.693 41.404 141.975 42.5382 142.544 43.4819C143.229 44.6251 144.186 45.1967 145.425 45.1967C146.637 45.1967 147.588 44.6131 148.275 43.4534C148.858 42.4842 149.151 41.3455 149.151 40.0237ZM162.752 35.6834C162.422 35.6234 162.087 35.5938 161.752 35.5949C160.636 35.5949 159.774 36.018 159.167 36.8702C158.64 37.6203 158.375 38.5685 158.375 39.7132V47.267H155.204V37.4043C155.207 35.893 155.176 34.3818 155.112 32.8719H157.874L157.99 35.6264H158.078C158.414 34.6798 158.941 33.9161 159.664 33.3445C160.325 32.845 161.129 32.5746 161.956 32.5734C162.249 32.5734 162.514 32.5944 162.749 32.6319L162.752 35.6834ZM176.935 39.3876C176.943 39.8739 176.905 40.3597 176.819 40.8384H167.305C167.341 42.2606 167.802 43.3498 168.685 44.1C169.487 44.7691 170.524 45.1052 171.797 45.1052C173.206 45.1052 174.491 44.8801 175.647 44.4255L176.144 46.6444C174.793 47.2385 173.199 47.5341 171.359 47.5341C169.145 47.5341 167.408 46.877 166.143 45.5657C164.882 44.253 164.25 42.4887 164.25 40.2788C164.25 38.1094 164.837 36.3016 166.014 34.8598C167.246 33.3205 168.91 32.5509 171.005 32.5509C173.062 32.5509 174.619 33.3205 175.677 34.8598C176.514 36.0795 176.935 37.5918 176.935 39.3876ZM173.911 38.558C173.933 37.6083 173.725 36.7906 173.295 36.099C172.746 35.2079 171.902 34.7638 170.77 34.7638C169.733 34.7638 168.888 35.1974 168.245 36.0675C167.717 36.7591 167.403 37.5903 167.307 38.555L173.911 38.558Z" fill="white"/>
<path d="M62.475 20.2412C61.5929 20.2412 60.8298 20.1977 60.1946 20.1241V10.4714C61.0829 10.333 61.9807 10.2648 62.8796 10.2674C66.5166 10.2674 68.1916 12.0722 68.1916 15.0142C68.1916 18.4078 66.2131 20.2412 62.475 20.2412ZM63.0075 11.5051C62.5166 11.5051 62.0986 11.5351 61.752 11.6071V18.9449C61.9395 18.9749 62.2994 18.9884 62.8052 18.9884C65.1882 18.9884 66.5449 17.6202 66.5449 15.0577C66.5449 12.7728 65.3176 11.5051 63.0075 11.5051ZM73.4113 20.3147C71.3615 20.3147 70.0331 18.7709 70.0331 16.675C70.0331 14.4906 71.3898 12.9333 73.5274 12.9333C75.5474 12.9333 76.9055 14.4036 76.9055 16.5595C76.9055 18.7709 75.5058 20.3147 73.4113 20.3147ZM73.4708 14.0825C72.3448 14.0825 71.6233 15.1447 71.6233 16.63C71.6233 18.0868 72.3596 19.149 73.456 19.149C74.5523 19.149 75.2886 18.0133 75.2886 16.6C75.2886 15.1597 74.5671 14.0825 73.4708 14.0825ZM88.5946 13.0789L86.4005 20.1541H84.971L84.0621 17.0816C83.8361 16.33 83.6479 15.5674 83.4983 14.7967H83.4686C83.354 15.5678 83.1368 16.3405 82.9063 17.0816L81.9394 20.1541H80.495L78.4303 13.0789H80.0323L80.8267 16.4425C81.0141 17.2436 81.1718 17.9998 81.3027 18.7139H81.3325C81.447 18.1183 81.6344 17.3741 81.9096 16.4575L82.9063 13.0804H84.1766L85.1301 16.3855C85.3607 17.1866 85.5481 17.9728 85.6939 18.7154H85.7356C85.8367 17.9878 85.9959 17.2151 86.2116 16.3855L87.0639 13.0804L88.5946 13.0789ZM96.6719 20.1541H95.113V16.0914C95.113 14.8402 94.637 14.2131 93.6983 14.2131C92.7746 14.2131 92.1394 15.0142 92.1394 15.9459V20.1541H90.5805V15.1012C90.5805 14.4756 90.5656 13.805 90.5224 13.0774H91.894L91.9668 14.1696H92.01C92.4295 13.4134 93.2803 12.9333 94.2338 12.9333C95.7065 12.9333 96.6734 14.069 96.6734 15.9174L96.6719 20.1541ZM100.971 20.1541H99.4105V9.83228H100.971V20.1541ZM106.655 20.3147C104.606 20.3147 103.277 18.7709 103.277 16.675C103.277 14.4906 104.633 12.9333 106.769 12.9333C108.791 12.9333 110.148 14.4036 110.148 16.5595C110.149 18.7709 108.748 20.3147 106.655 20.3147ZM106.713 14.0825C105.587 14.0825 104.865 15.1447 104.865 16.63C104.865 18.0868 105.603 19.149 106.696 19.149C107.794 19.149 108.529 18.0133 108.529 16.6C108.531 15.1597 107.811 14.0825 106.713 14.0825ZM116.294 20.1541L116.181 19.3395H116.139C115.663 19.9951 114.969 20.3147 114.088 20.3147C112.831 20.3147 111.938 19.4265 111.938 18.2323C111.938 16.486 113.439 15.5828 116.038 15.5828V15.4523C116.038 14.5206 115.549 14.054 114.582 14.054C113.89 14.054 113.283 14.2296 112.749 14.5791L112.432 13.5454C113.081 13.1374 113.89 12.9333 114.841 12.9333C116.673 12.9333 117.599 13.9085 117.599 15.8604V18.4663C117.599 19.1805 117.63 19.7341 117.7 20.1556L116.294 20.1541ZM116.08 16.63C114.348 16.63 113.48 17.0531 113.48 18.0568C113.48 18.7994 113.927 19.1625 114.549 19.1625C115.342 19.1625 116.08 18.5519 116.08 17.7222V16.63ZM125.169 20.1541L125.096 19.0184H125.053C124.605 19.8766 123.852 20.3147 122.8 20.3147C121.109 20.3147 119.857 18.8144 119.857 16.7035C119.857 14.4906 121.155 12.9318 122.928 12.9318C123.867 12.9318 124.532 13.2514 124.907 13.8935H124.938V9.83228H126.498V18.2473C126.498 18.9314 126.515 19.572 126.557 20.1541H125.169ZM124.938 15.9909C124.938 15.0007 124.288 14.1561 123.296 14.1561C122.14 14.1561 121.433 15.1897 121.433 16.645C121.433 18.0718 122.167 19.0484 123.265 19.0484C124.245 19.0484 124.938 18.1888 124.938 17.1701V15.9909ZM136.392 20.3147C134.344 20.3147 133.015 18.7709 133.015 16.675C133.015 14.4906 134.372 12.9333 136.508 12.9333C138.53 12.9333 139.886 14.4036 139.886 16.5595C139.888 18.7709 138.488 20.3147 136.392 20.3147ZM136.45 14.0825C135.326 14.0825 134.604 15.1447 134.604 16.63C134.604 18.0868 135.34 19.149 136.435 19.149C137.533 19.149 138.268 18.0133 138.268 16.6C138.271 15.1597 137.549 14.0825 136.45 14.0825ZM148.27 20.1541H146.71V16.0914C146.71 14.8402 146.234 14.2131 145.295 14.2131C144.371 14.2131 143.738 15.0142 143.738 15.9459V20.1541H142.177V15.1012C142.177 14.4756 142.162 13.805 142.119 13.0774H143.491L143.563 14.1696H143.607C144.025 13.4134 144.877 12.9318 145.829 12.9318C147.302 12.9318 148.27 14.0675 148.27 15.9159V20.1541ZM158.759 14.2581H157.044V17.6937C157.044 18.5684 157.344 19.0049 157.951 19.0049C158.226 19.0049 158.457 18.9749 158.643 18.9314L158.686 20.1256C158.384 20.2427 157.979 20.3012 157.476 20.3012C156.248 20.3012 155.513 19.6171 155.513 17.8257V14.2581H154.489V13.0789H155.513V11.7826L157.044 11.316V13.0774H158.759V14.2581ZM167.012 20.1541H165.454V16.1214C165.454 14.8552 164.98 14.2146 164.039 14.2146C163.232 14.2146 162.479 14.7682 162.479 15.8889V20.1541H160.922V9.83228H162.479V14.0825H162.51C163.001 13.3114 163.712 12.9318 164.62 12.9318C166.104 12.9318 167.012 14.096 167.012 15.9459V20.1541ZM175.467 16.9946H170.788C170.818 18.3343 171.697 19.0905 172.999 19.0905C173.691 19.0905 174.327 18.9734 174.889 18.7559L175.132 19.8481C174.469 20.1391 173.688 20.2847 172.779 20.2847C170.585 20.2847 169.286 18.8864 169.286 16.7185C169.286 14.5491 170.616 12.9183 172.603 12.9183C174.396 12.9183 175.52 14.2581 175.52 16.2819C175.53 16.5208 175.512 16.76 175.467 16.9946ZM174.037 15.8739C174.037 14.7817 173.491 14.0105 172.495 14.0105C171.599 14.0105 170.891 14.7967 170.79 15.8739H174.037Z" fill="white"/>
<defs>
<linearGradient id="paint0_linear" x1="142.427" y1="60.1537" x2="142.427" y2="-156.215" gradientUnits="userSpaceOnUse">
<stop stop-color="#1A1A1A" stop-opacity="0.1"/>
<stop offset="0.123" stop-color="#212121" stop-opacity="0.151"/>
<stop offset="0.308" stop-color="#353535" stop-opacity="0.227"/>
<stop offset="0.532" stop-color="#575757" stop-opacity="0.318"/>
<stop offset="0.783" stop-color="#858585" stop-opacity="0.421"/>
<stop offset="1" stop-color="#B3B3B3" stop-opacity="0.51"/>
</linearGradient>
</defs>
</svg>
