<svg width="60" height="60" viewBox="0 0 60 60" fill="none" xmlns="http://www.w3.org/2000/svg">
<rect width="60" height="60" rx="30" fill="#B8F2FF"/>
<path d="M38.9889 24.5446C38.9766 24.327 38.887 24.121 38.7363 23.9636L33.3363 18.5636C33.2597 18.4896 33.1704 18.4298 33.0727 18.3873C32.9712 18.3465 32.8643 18.3208 32.7554 18.311C32.736 18.3097 32.7193 18.2999 32.7 18.2999H23.7C22.9842 18.3007 22.2979 18.5854 21.7917 19.0916C21.2855 19.5978 21.0008 20.2841 21 20.9999V38.9999C21.0008 39.7158 21.2855 40.4021 21.7917 40.9082C22.2979 41.4144 22.9842 41.6991 23.7 41.6999H36.3C37.0158 41.6991 37.7021 41.4144 38.2083 40.9082C38.7145 40.4021 38.9992 39.7158 39 38.9999V24.5999C39 24.5807 38.9902 24.5639 38.9889 24.5446ZM35.9273 23.6999H33.6V21.3726L35.9273 23.6999ZM36.3 39.8999H23.7C23.4613 39.8998 23.2325 39.8049 23.0638 39.6362C22.895 39.4674 22.8001 39.2386 22.8 38.9999V20.9999C22.8001 20.7613 22.895 20.5324 23.0638 20.3637C23.2325 20.1949 23.4613 20.1001 23.7 20.0999H31.8V24.5999C31.8 24.8386 31.8948 25.0675 32.0636 25.2363C32.2324 25.4051 32.4613 25.4999 32.7 25.4999H37.2V38.9999C37.1999 39.2386 37.105 39.4674 36.9362 39.6362C36.7675 39.8049 36.5387 39.8998 36.3 39.8999Z" fill="#00B1E3"/>
<path d="M35.4001 37.2C35.4001 37.4387 35.3053 37.6676 35.1365 37.8364C34.9678 38.0052 34.7388 38.1 34.5001 38.1H25.5001C25.2614 38.1 25.0325 38.0052 24.8637 37.8364C24.695 37.6676 24.6001 37.4387 24.6001 37.2C24.6001 36.9613 24.695 36.7324 24.8637 36.5636C25.0325 36.3948 25.2614 36.3 25.5001 36.3H34.5001C34.7388 36.3 34.9678 36.3948 35.1365 36.5636C35.3053 36.7324 35.4001 36.9613 35.4001 37.2ZM25.5001 34.5H34.5001C34.7388 34.5 34.9678 34.4052 35.1365 34.2364C35.3053 34.0676 35.4001 33.8387 35.4001 33.6C35.4001 33.3613 35.3053 33.1324 35.1365 32.9636C34.9678 32.7948 34.7388 32.7 34.5001 32.7H25.5001C25.2614 32.7 25.0325 32.7948 24.8637 32.9636C24.695 33.1324 24.6001 33.3613 24.6001 33.6C24.6001 33.8387 24.695 34.0676 24.8637 34.2364C25.0325 34.4052 25.2614 34.5 25.5001 34.5ZM27.7501 28.2H25.5001C25.2614 28.2 25.0325 28.2948 24.8637 28.4636C24.695 28.6324 24.6001 28.8613 24.6001 29.1C24.6001 29.3387 24.695 29.5676 24.8637 29.7364C25.0325 29.9052 25.2614 30 25.5001 30H26.4001V30.9C26.4001 31.1387 26.495 31.3676 26.6637 31.5364C26.8325 31.7052 27.0614 31.8 27.3001 31.8C27.5388 31.8 27.7677 31.7052 27.9365 31.5364C28.1053 31.3676 28.2001 31.1387 28.2001 30.9V29.955C28.747 29.844 29.233 29.5337 29.5639 29.0845C29.8949 28.6352 30.0471 28.079 29.991 27.5239C29.9349 26.9687 29.6746 26.4542 29.2605 26.0802C28.8464 25.7062 28.3081 25.4994 27.7501 25.5H26.8501C26.7308 25.5 26.6163 25.4526 26.5319 25.3682C26.4475 25.2838 26.4001 25.1693 26.4001 25.05C26.4001 24.9307 26.4475 24.8162 26.5319 24.7318C26.6163 24.6474 26.7308 24.6 26.8501 24.6H29.1001C29.3388 24.6 29.5678 24.5052 29.7365 24.3364C29.9053 24.1676 30.0001 23.9387 30.0001 23.7C30.0001 23.4613 29.9053 23.2324 29.7365 23.0636C29.5678 22.8948 29.3388 22.8 29.1001 22.8H28.2001V21.9C28.2001 21.6613 28.1053 21.4324 27.9365 21.2636C27.7677 21.0948 27.5388 21 27.3001 21C27.0614 21 26.8325 21.0948 26.6637 21.2636C26.495 21.4324 26.4001 21.6613 26.4001 21.9V22.845C25.8533 22.956 25.3673 23.2663 25.0363 23.7155C24.7054 24.1648 24.5532 24.721 24.6093 25.2761C24.6653 25.8313 24.9257 26.3458 25.3398 26.7198C25.7539 27.0938 26.2922 27.3006 26.8501 27.3H27.7501C27.8695 27.3 27.9839 27.3474 28.0683 27.4318C28.1527 27.5162 28.2001 27.6307 28.2001 27.75C28.2001 27.8693 28.1527 27.9838 28.0683 28.0682C27.9839 28.1526 27.8695 28.2 27.7501 28.2Z" fill="#27D6FF"/>
</svg>
