<svg width="197" height="60" viewBox="0 0 197 60" fill="none" xmlns="http://www.w3.org/2000/svg">
<path d="M188.832 60H7.26275C3.19561 60 0 56.7 0 52.5L0 7.5C0 3.3 3.19561 0 7.26275 0L188.832 0C192.899 0 196.094 3.3 196.094 7.5V52.5C196.094 56.7 192.899 60 188.832 60Z" fill="black"/>
<path d="M65.1139 15.5131C65.1139 16.6686 64.8152 17.6797 64.0686 18.4019C63.1727 19.2685 62.1274 19.7018 60.7835 19.7018C59.4396 19.7018 58.3944 19.2685 57.4984 18.4019C56.6025 17.5352 56.1545 16.5241 56.1545 15.2242C56.1545 13.9242 56.6025 12.9132 57.4984 12.0465C58.3944 11.1799 59.4396 10.7466 60.7835 10.7466C61.3808 10.7466 61.9781 10.891 62.5754 11.1799C63.1727 11.4688 63.6206 11.7577 63.9193 12.191L63.1727 12.9132C62.5754 12.191 61.8288 11.9021 60.7835 11.9021C59.8876 11.9021 58.9917 12.191 58.3944 12.9132C57.6478 13.4909 57.3491 14.3576 57.3491 15.3686C57.3491 16.3797 57.6478 17.2463 58.3944 17.8241C59.141 18.4019 59.8876 18.8352 60.7835 18.8352C61.8288 18.8352 62.5754 18.5463 63.322 17.8241C63.77 17.3908 64.0686 16.813 64.0686 16.0908H60.7835V14.9353H65.1139V15.5131ZM71.9827 11.9021H67.951V14.6464H71.684V15.6575H67.951V18.4019H71.9827V19.5574H66.7564V10.891H71.9827V11.9021ZM76.9103 19.5574H75.7157V11.9021H73.1773V10.891H79.4488V11.9021H76.9103V19.5574ZM83.7791 19.5574V10.891H84.9737V19.5574H83.7791ZM90.0506 19.5574H88.8561V11.9021H86.3176V10.891H92.4398V11.9021H89.9013V19.5574H90.0506ZM104.236 18.4019C103.34 19.2685 102.295 19.7018 100.951 19.7018C99.6073 19.7018 98.562 19.2685 97.6661 18.4019C96.7701 17.5352 96.3222 16.5241 96.3222 15.2242C96.3222 13.9242 96.7701 12.9132 97.6661 12.0465C98.562 11.1799 99.6073 10.7466 100.951 10.7466C102.295 10.7466 103.34 11.1799 104.236 12.0465C105.132 12.9132 105.58 13.9242 105.58 15.2242C105.58 16.5241 105.132 17.5352 104.236 18.4019ZM98.562 17.6797C99.1593 18.2574 100.055 18.6907 100.951 18.6907C101.847 18.6907 102.743 18.4019 103.34 17.6797C103.938 17.1019 104.386 16.2353 104.386 15.2242C104.386 14.2131 104.087 13.3465 103.34 12.7687C102.743 12.191 101.847 11.7577 100.951 11.7577C100.055 11.7577 99.1593 12.0465 98.562 12.7687C97.9647 13.3465 97.5168 14.2131 97.5168 15.2242C97.5168 16.2353 97.8154 17.1019 98.562 17.6797ZM107.223 19.5574V10.891H108.567L112.897 17.6797V10.891H114.091V19.5574H112.897L108.268 12.4799V19.5574H107.223Z" fill="white"/>
<path d="M96.2647 32.9434C92.6994 32.9434 89.8768 35.6141 89.8768 39.3233C89.8768 42.8842 92.6994 45.7033 96.2647 45.7033C99.8301 45.7033 102.653 43.0326 102.653 39.3233C102.653 35.4657 99.8301 32.9434 96.2647 32.9434ZM96.2647 43.0326C94.3335 43.0326 92.6994 41.4005 92.6994 39.175C92.6994 36.9494 94.3335 35.3173 96.2647 35.3173C98.196 35.3173 99.8301 36.801 99.8301 39.175C99.8301 41.4005 98.196 43.0326 96.2647 43.0326ZM82.449 32.9434C78.8837 32.9434 76.0611 35.6141 76.0611 39.3233C76.0611 42.8842 78.8837 45.7033 82.449 45.7033C86.0144 45.7033 88.8369 43.0326 88.8369 39.3233C88.8369 35.4657 86.0144 32.9434 82.449 32.9434ZM82.449 43.0326C80.5178 43.0326 78.8837 41.4005 78.8837 39.175C78.8837 36.9494 80.5178 35.3173 82.449 35.3173C84.3802 35.3173 86.0144 36.801 86.0144 39.175C86.0144 41.4005 84.3802 43.0326 82.449 43.0326ZM65.9593 34.8722V37.5429H72.3472C72.1986 39.0266 71.6044 40.2135 70.8616 40.9554C69.9703 41.8456 68.4847 42.8842 65.9593 42.8842C61.9482 42.8842 58.9771 39.7684 58.9771 35.7624C58.9771 31.7564 62.0968 28.6406 65.9593 28.6406C68.039 28.6406 69.6732 29.5309 70.8616 30.5695L72.7928 28.6406C71.1587 27.1569 69.0789 25.97 66.1078 25.97C60.7598 25.97 56.1545 30.4211 56.1545 35.7624C56.1545 41.1038 60.7598 45.5549 66.1078 45.5549C69.0789 45.5549 71.1587 44.6647 72.9414 42.7358C74.7241 40.9554 75.3183 38.4331 75.3183 36.5043C75.3183 35.9108 75.3183 35.3173 75.1698 34.8722H65.9593ZM133.404 36.9494C132.81 35.4657 131.324 32.9434 128.056 32.9434C124.788 32.9434 122.114 35.4657 122.114 39.3233C122.114 42.8842 124.788 45.7033 128.353 45.7033C131.175 45.7033 132.958 43.9228 133.552 42.8842L131.473 41.4005C130.73 42.4391 129.838 43.181 128.353 43.181C126.867 43.181 125.976 42.5875 125.233 41.2521L133.701 37.6912L133.404 36.9494ZM124.788 39.0266C124.788 36.6527 126.719 35.3173 128.056 35.3173C129.096 35.3173 130.136 35.9108 130.433 36.6527L124.788 39.0266ZM117.805 45.1098H120.628V26.5635H117.805V45.1098ZM113.349 34.2787C112.606 33.5369 111.417 32.795 109.932 32.795C106.812 32.795 103.841 35.6141 103.841 39.175C103.841 42.7358 106.664 45.4065 109.932 45.4065C111.417 45.4065 112.606 44.6647 113.2 43.9228H113.349V44.813C113.349 47.187 112.012 48.5223 109.932 48.5223C108.298 48.5223 107.109 47.3353 106.812 46.2967L104.435 47.3353C105.178 48.9674 106.961 51.0446 110.08 51.0446C113.349 51.0446 116.023 49.1158 116.023 44.5163V33.2401H113.349V34.2787ZM110.08 43.0326C108.149 43.0326 106.515 41.4005 106.515 39.175C106.515 36.9494 108.149 35.3173 110.08 35.3173C112.012 35.3173 113.497 36.9494 113.497 39.175C113.497 41.4005 112.012 43.0326 110.08 43.0326ZM146.328 26.5635H139.643V45.1098H142.466V38.1364H146.328C149.448 38.1364 152.419 35.9108 152.419 32.3499C152.419 28.789 149.448 26.5635 146.328 26.5635ZM146.477 35.4657H142.466V29.0858H146.477C148.557 29.0858 149.745 30.8662 149.745 32.2015C149.596 33.8336 148.408 35.4657 146.477 35.4657ZM163.561 32.795C161.481 32.795 159.401 33.6852 158.658 35.6141L161.184 36.6527C161.778 35.6141 162.669 35.3173 163.709 35.3173C165.195 35.3173 166.532 36.2075 166.68 37.6912V37.8396C166.235 37.5429 165.046 37.0978 163.858 37.0978C161.184 37.0978 158.51 38.5815 158.51 41.2521C158.51 43.7744 160.738 45.4065 163.115 45.4065C165.046 45.4065 165.938 44.5163 166.68 43.6261H166.829V45.1098H169.503V37.988C169.206 34.7238 166.68 32.795 163.561 32.795ZM163.264 43.0326C162.372 43.0326 161.035 42.5875 161.035 41.4005C161.035 39.9168 162.669 39.4717 164.006 39.4717C165.195 39.4717 165.789 39.7684 166.532 40.0652C166.235 41.8456 164.749 43.0326 163.264 43.0326ZM178.862 33.2401L175.742 41.2521H175.594L172.326 33.2401H169.354L174.257 44.5163L171.434 50.7479H174.257L181.833 33.2401H178.862ZM153.905 45.1098H156.727V26.5635H153.905V45.1098Z" fill="white"/>
<path d="M10.4878 11.2559C10.0419 11.7057 9.89331 12.4554 9.89331 13.3551V46.4931C9.89331 47.3927 10.1906 48.1425 10.6365 48.5923L10.7851 48.7422L29.2157 30.149V29.8491L10.4878 11.2559Z" fill="url(#paint0_linear)"/>
<path d="M35.1594 36.447L29.0654 30.2993V29.8494L35.1594 23.7017L35.308 23.8516L42.5911 28.0501C44.672 29.2496 44.672 31.1989 42.5911 32.3985L35.1594 36.447Z" fill="url(#paint1_linear)"/>
<path d="M35.3091 36.2977L29.0665 30L10.4873 48.7432C11.2305 49.4929 12.2709 49.4929 13.6086 48.8931L35.3091 36.2977Z" fill="url(#paint2_linear)"/>
<path d="M35.3091 23.7018L13.6086 11.2563C12.2709 10.5066 11.2305 10.6566 10.4873 11.4063L29.0665 29.9995L35.3091 23.7018Z" fill="url(#paint3_linear)"/>
<path opacity="0.2" d="M35.1605 36.1475L13.6086 48.443C12.4195 49.1927 11.3791 49.0428 10.6359 48.443L10.4873 48.5929L10.6359 48.7429C11.3791 49.3427 12.4195 49.4926 13.6086 48.7429L35.1605 36.1475Z" fill="black"/>
<path opacity="0.2" d="M10.4878 48.4433C10.0419 47.9935 9.89331 47.2437 9.89331 46.3441V46.494C9.89331 47.3937 10.1906 48.1434 10.6365 48.5933V48.4433H10.4878ZM42.5927 31.9493L35.161 36.1478L35.3097 36.2977L42.5927 32.0992C43.6331 31.4995 44.079 30.7497 44.079 30C44.079 30.7497 43.4845 31.3495 42.5927 31.9493Z" fill="black"/>
<path opacity="0.2" d="M13.6104 11.406L42.5939 28.05C43.4857 28.6498 44.0803 29.2495 44.0803 29.9993C44.0803 29.2495 43.6344 28.4998 42.5939 27.9L13.6104 11.2561C11.5295 10.0565 9.89453 10.9562 9.89453 13.3553V13.5053C9.89453 11.2561 11.5295 10.2065 13.6104 11.406Z" fill="white"/>
<defs>
<linearGradient id="paint0_linear" x1="27.4321" y1="13.0702" x2="2.26768" y2="38.0129" gradientUnits="userSpaceOnUse">
<stop stop-color="#00A0FF"/>
<stop offset="0.007" stop-color="#00A1FF"/>
<stop offset="0.26" stop-color="#00BEFF"/>
<stop offset="0.512" stop-color="#00D2FF"/>
<stop offset="0.76" stop-color="#00DFFF"/>
<stop offset="1" stop-color="#00E3FF"/>
</linearGradient>
<linearGradient id="paint1_linear" x1="45.317" y1="30.0009" x2="9.35214" y2="30.0009" gradientUnits="userSpaceOnUse">
<stop stop-color="#FFE000"/>
<stop offset="0.409" stop-color="#FFBD00"/>
<stop offset="0.775" stop-color="#FFA500"/>
<stop offset="1" stop-color="#FF9C00"/>
</linearGradient>
<linearGradient id="paint2_linear" x1="31.9307" y1="33.4427" x2="-2.19262" y2="67.2675" gradientUnits="userSpaceOnUse">
<stop stop-color="#FF3A44"/>
<stop offset="1" stop-color="#C31162"/>
</linearGradient>
<linearGradient id="paint3_linear" x1="5.87521" y1="0.274321" x2="21.1136" y2="15.3794" gradientUnits="userSpaceOnUse">
<stop stop-color="#32A071"/>
<stop offset="0.069" stop-color="#2DA771"/>
<stop offset="0.476" stop-color="#15CF74"/>
<stop offset="0.801" stop-color="#06E775"/>
<stop offset="1" stop-color="#00F076"/>
</linearGradient>
</defs>
</svg>
