<svg width="60" height="60" viewBox="0 0 60 60" fill="none" xmlns="http://www.w3.org/2000/svg">
<rect width="60" height="60" rx="30" fill="#D1E8FF"/>
<path d="M20.9226 22.7699C20.9995 22.9238 21.3072 23.0776 21.538 23.0776H23.8457V32.3084H23.0765C22.6149 32.3084 22.3072 32.6161 22.3072 33.0776V41.5391C22.3072 42.0007 22.6149 42.3084 23.0765 42.3084H36.9226C37.3842 42.3084 37.6919 42.0007 37.6919 41.5391V33.0776C37.6919 32.6161 37.3842 32.3084 36.9226 32.3084H36.1534V23.0776H38.4611C38.9226 23.0776 39.2303 22.7699 39.2303 22.3084C39.2303 22.1545 39.1534 22.0007 39.0765 21.9238L37.6149 18.2315C37.538 17.8468 37.2303 17.693 36.9226 17.693H23.0765C22.7688 17.693 22.4611 17.8468 22.3842 18.1545L20.8457 22.0007C20.6919 22.2315 20.7688 22.5391 20.9226 22.7699ZM36.1534 40.7699H23.8457V33.8468H36.1534V40.7699ZM29.2303 25.4622C27.9995 25.7699 27.0765 26.9238 27.0765 28.3084C27.0765 29.9238 28.3842 31.2315 29.9995 31.2315C31.6149 31.2315 32.9226 29.9238 32.9226 28.3084C32.9226 26.9238 31.9995 25.8468 30.7688 25.4622V23.0776H34.6149V32.3084H25.3842V23.0776H29.2303V25.4622ZM29.9995 26.9238C30.7688 26.9238 31.3842 27.5391 31.3842 28.3084C31.3842 29.0776 30.7688 29.7699 29.9995 29.7699C29.2303 29.7699 28.6149 29.1545 28.6149 28.3853C28.6149 27.6161 29.2303 26.9238 29.9995 26.9238ZM23.6149 19.2315H36.3842L37.3072 21.5391H22.6919L23.6149 19.2315Z" fill="#1C82E8"/>
</svg>
