<svg width="52" height="52" viewBox="0 0 52 52" fill="none" xmlns="http://www.w3.org/2000/svg">
<rect width="52" height="52" rx="26" fill="#49A347" fill-opacity="0.22"/>
<g clip-path="url(#clip0)">
<path d="M26.006 24.9451C24.5365 24.9451 23.3416 23.7503 23.3416 22.2807C23.3416 20.8111 24.5365 19.6162 26.006 19.6162C27.4756 19.6162 28.6705 20.8111 28.6705 22.2807C28.6749 23.7503 27.48 24.9451 26.006 24.9451ZM26.006 20.4622C25.0031 20.4622 24.1876 21.2777 24.1876 22.2807C24.1876 23.2837 25.0031 24.1035 26.006 24.1035C27.009 24.1035 27.8245 23.288 27.8245 22.2807C27.8289 21.2777 27.0134 20.4622 26.006 20.4622ZM30.7724 30.9151H21.244C21.0086 30.9151 20.821 30.7276 20.821 30.4921C20.821 27.6314 23.1454 25.3027 26.006 25.3027C28.8667 25.3027 31.1911 27.6314 31.1911 30.4921C31.1954 30.7276 31.0035 30.9151 30.7724 30.9151ZM21.6888 30.0691H30.3276C30.1139 27.8712 28.2606 26.1443 26.006 26.1443C23.7515 26.1443 21.9025 27.8712 21.6888 30.0691Z" fill="#49A347" stroke="#49A347"/>
<path d="M26.0063 34.6647C21.0873 34.6647 17.0841 30.6615 17.0841 25.7425C17.0841 20.8235 21.0873 16.8203 26.0063 16.8203C30.9253 16.8203 34.9285 20.8235 34.9285 25.7425C34.9285 30.6615 30.9297 34.6647 26.0063 34.6647ZM26.0063 17.6663C21.5539 17.6663 17.9301 21.2901 17.9301 25.7425C17.9301 30.1949 21.5539 33.8188 26.0063 33.8188C30.4587 33.8188 34.0825 30.1949 34.0825 25.7425C34.0869 21.2858 30.4631 17.6663 26.0063 17.6663Z" fill="#49A347" stroke="#49A347"/>
<path d="M26.0055 38.4722C19.1198 38.4722 13.5336 33.0866 13.2894 26.2096C13.2806 25.9785 13.4638 25.7823 13.6949 25.7736C13.9348 25.7561 14.1223 25.948 14.131 26.1791C14.3621 32.5982 19.5776 37.6262 26.0055 37.6262C26.0404 37.6262 26.0796 37.6262 26.1189 37.6219C26.35 37.5957 26.5549 37.7745 26.5767 38.0056C26.5986 38.2368 26.4241 38.4417 26.193 38.4635C26.1319 38.4722 26.0665 38.4722 26.0055 38.4722Z" fill="#49A347" stroke="#49A347"/>
<path d="M12.4742 28.0763C12.3782 28.0763 12.2779 28.0414 12.1994 27.976C12.0207 27.8234 11.9988 27.5574 12.1515 27.3786L13.4074 25.9003C13.4815 25.8087 13.5949 25.7564 13.7126 25.752C13.8304 25.7433 13.9438 25.7912 14.0266 25.8741L15.409 27.2347C15.5747 27.4004 15.5791 27.6664 15.4134 27.8321C15.2477 27.9978 14.9816 28.0022 14.8159 27.8365L13.7563 26.7942L12.7925 27.928C12.714 28.024 12.5919 28.0763 12.4742 28.0763Z" fill="#49A347" stroke="#49A347"/>
<path d="M38.2987 25.708C38.072 25.708 37.8844 25.5292 37.8757 25.3024C37.6446 18.8833 32.4291 13.8597 26.0056 13.8597C25.9707 13.8597 25.9358 13.8597 25.9053 13.8597C25.6742 13.8815 25.4649 13.7158 25.4387 13.4846C25.4125 13.2535 25.5826 13.0442 25.8137 13.018C25.8748 13.0137 25.9445 13.0137 26.0056 13.0137C32.887 13.0137 38.4732 18.3993 38.7217 25.2719C38.7304 25.5074 38.5473 25.6993 38.3162 25.708C38.3118 25.708 38.3031 25.708 38.2987 25.708Z" fill="#49A347" stroke="#49A347"/>
<path d="M38.2812 25.73C38.1722 25.73 38.0632 25.6864 37.9847 25.6079L36.6023 24.2473C36.4366 24.0816 36.4322 23.8156 36.598 23.6499C36.7637 23.4842 37.0297 23.4798 37.1954 23.6455L38.2551 24.6877L39.2188 23.5539C39.3714 23.3751 39.6374 23.3533 39.8162 23.506C39.995 23.6586 40.0168 23.9246 39.8642 24.1034L38.6083 25.5817C38.5342 25.6733 38.4208 25.7256 38.303 25.73C38.2943 25.73 38.2856 25.73 38.2812 25.73Z" fill="#49A347" stroke="#49A347"/>
<path d="M39.5107 39.671C39.3974 39.671 39.2883 39.6274 39.2055 39.5489L33.8766 34.2113C33.7109 34.0456 33.7109 33.7796 33.8766 33.6139C34.0423 33.4482 34.3083 33.4482 34.474 33.6139L39.7898 38.9341C39.877 39.0126 39.9337 39.1259 39.9337 39.248C39.9337 39.4835 39.7462 39.671 39.5107 39.671ZM17.8288 17.9935C17.7198 17.9935 17.6108 17.9542 17.5279 17.8714L12.199 12.5337C12.0333 12.368 12.0333 12.102 12.199 11.9363C12.3647 11.7706 12.6307 11.7706 12.7964 11.9363L18.1297 17.2739C18.2954 17.4396 18.2954 17.7056 18.1297 17.8714C18.0468 17.9542 17.9378 17.9935 17.8288 17.9935Z" fill="#49A347" stroke="#49A347"/>
<path d="M12.5705 14.6015C12.3437 14.6015 12.1562 14.4227 12.1475 14.196L12.0777 12.2511C12.0733 12.1333 12.1169 12.0199 12.1998 11.9371C12.2826 11.8542 12.396 11.8063 12.5138 11.815L14.4543 11.8848C14.6855 11.8935 14.8686 12.0897 14.8599 12.3208C14.8555 12.552 14.668 12.7308 14.4412 12.7308C14.4369 12.7308 14.4325 12.7308 14.4238 12.7308L12.9368 12.6741L12.9891 14.1611C12.9978 14.3966 12.8147 14.5885 12.5835 14.5972C12.5792 14.6015 12.5748 14.6015 12.5705 14.6015ZM39.5115 39.6718C39.5072 39.6718 39.5028 39.6718 39.4941 39.6718L37.5535 39.6021C37.3224 39.5933 37.1393 39.3971 37.148 39.166C37.1567 38.9305 37.3486 38.7473 37.5841 38.7604L39.0711 38.8128L39.0144 37.3257C39.0057 37.0902 39.1888 36.894 39.42 36.8896C39.6511 36.8722 39.8517 37.0641 39.8561 37.2952L39.9258 39.2358C39.9302 39.3535 39.8866 39.4669 39.8037 39.5497C39.7339 39.6282 39.6249 39.6718 39.5115 39.6718Z" fill="#49A347" stroke="#49A347"/>
</g>
<defs>
<clipPath id="clip0">
<rect width="27.9092" height="27.9092" fill="white" transform="translate(12.0514 11.7886)"/>
</clipPath>
</defs>
</svg>
