<svg width="26" height="25" viewBox="0 0 26 25" fill="none" xmlns="http://www.w3.org/2000/svg">
<path d="M23.1114 0.769043H2.079C1.35882 0.769472 0.775002 1.34854 0.775147 2.0628V22.9139C0.775579 23.6279 1.35969 24.2067 2.08015 24.2065H13.4039V15.1428H10.3333V11.5952H13.4039V8.98433C13.4039 5.95665 15.2683 4.3087 17.9926 4.3087C19.2974 4.3087 20.4188 4.40512 20.7456 4.44818V7.61261H18.867C17.3848 7.61261 17.0978 8.31084 17.0978 9.33566V11.5952H20.6417L20.1799 15.1428H17.0978V24.2065H23.1114C23.8321 24.2067 24.4163 23.6278 24.4165 22.9134C24.4165 22.9132 24.4165 22.9131 24.4165 22.9128V2.06165C24.4162 1.34768 23.8319 0.7689 23.1114 0.769043Z" fill="#777777"/>
</svg>
