<svg width="27" height="25" viewBox="0 0 27 25" fill="none" xmlns="http://www.w3.org/2000/svg">
<g clip-path="url(#clip0)">
<path d="M24.2678 0H2.68784C1.68335 0 0.869141 0.80719 0.869141 1.80302V23.197C0.869141 24.1928 1.68335 25 2.68784 25H24.2678C25.2723 25 26.0865 24.1928 26.0865 23.197V1.80302C26.0865 0.80719 25.2723 0 24.2678 0V0ZM9.8139 18.8965H6.7431V9.73759H9.8139V18.8965ZM8.2786 8.48694H8.25859C7.22813 8.48694 6.56168 7.7837 6.56168 6.90479C6.56168 6.00605 7.24852 5.32227 8.29899 5.32227C9.34946 5.32227 9.9959 6.00605 10.0159 6.90479C10.0159 7.7837 9.34946 8.48694 8.2786 8.48694ZM20.8865 18.8965H17.8161V13.9967C17.8161 12.7653 17.3715 11.9255 16.2604 11.9255C15.4122 11.9255 14.9069 12.492 14.6849 13.0388C14.6037 13.2345 14.5839 13.508 14.5839 13.7817V18.8965H11.5133C11.5133 18.8965 11.5535 10.5968 11.5133 9.73759H14.5839V11.0344C14.992 10.4103 15.7221 9.52263 17.3513 9.52263C19.3716 9.52263 20.8865 10.8316 20.8865 13.6448V18.8965Z" fill="#777777"/>
</g>
<defs>
<clipPath id="clip0">
<rect width="25.2174" height="25" fill="white" transform="translate(0.869141)"/>
</clipPath>
</defs>
</svg>
