<svg width="26" height="25" viewBox="0 0 26 25" fill="none" xmlns="http://www.w3.org/2000/svg">
<path d="M8.64914 21.8856C17.5709 21.8856 22.4498 14.5579 22.4498 8.20393C22.4498 7.99582 22.4454 7.78856 22.436 7.58245C23.383 6.90363 24.2061 6.05655 24.8555 5.09236C23.9865 5.47549 23.0511 5.73305 22.0701 5.84958C23.0714 5.25404 23.8403 4.31236 24.2029 3.18979C23.2657 3.74061 22.2278 4.14079 21.123 4.35693C20.2379 3.42227 18.9776 2.83777 17.5823 2.83777C14.9038 2.83777 12.7316 4.99117 12.7316 7.64566C12.7316 8.02319 12.7742 8.39012 12.8573 8.74214C8.8261 8.54105 5.25129 6.62772 2.85926 3.71811C2.44287 4.4286 2.20259 5.25418 2.20259 6.13509C2.20259 7.80318 3.05892 9.27619 4.36098 10.1376C3.56523 10.1134 2.81776 9.89681 2.16427 9.53633C2.16355 9.55654 2.16355 9.57618 2.16355 9.59768C2.16355 11.9265 3.83544 13.8709 6.05513 14.3115C5.64743 14.4215 5.21847 14.4807 4.77606 14.4807C4.46406 14.4807 4.15987 14.4503 3.86436 14.394C4.48185 16.3046 6.27258 17.6949 8.39555 17.7339C6.73537 19.0238 4.64406 19.7922 2.37116 19.7922C1.98023 19.7922 1.59377 19.77 1.21411 19.7256C3.36079 21.0897 5.90983 21.8857 8.64928 21.8857" fill="#777777"/>
</svg>
