<svg width="20" height="20" viewBox="0 0 20 20" fill="none" xmlns="http://www.w3.org/2000/svg">
<path fill-rule="evenodd" clip-rule="evenodd" d="M15.8332 2.49967H14.1665V1.66634C14.1665 1.16634 13.8332 0.833008 13.3332 0.833008C12.8332 0.833008 12.4998 1.16634 12.4998 1.66634V2.49967H7.49984V1.66634C7.49984 1.16634 7.1665 0.833008 6.6665 0.833008C6.1665 0.833008 5.83317 1.16634 5.83317 1.66634V2.49967H4.1665C2.74984 2.49967 1.6665 3.58301 1.6665 4.99967V16.6663C1.6665 18.083 2.74984 19.1663 4.1665 19.1663H15.8332C17.2498 19.1663 18.3332 18.083 18.3332 16.6663V4.99967C18.3332 3.58301 17.2498 2.49967 15.8332 2.49967ZM4.1665 4.16674H5.83317V5.00008C5.83317 5.50008 6.1665 5.83341 6.6665 5.83341C7.1665 5.83341 7.49984 5.50008 7.49984 5.00008V4.16674H12.4998V5.00008C12.4998 5.50008 12.8332 5.83341 13.3332 5.83341C13.8332 5.83341 14.1665 5.50008 14.1665 5.00008V4.16674H15.8332C16.3332 4.16674 16.6665 4.50008 16.6665 5.00008V7.50008H3.33317V5.00008C3.33317 4.50008 3.6665 4.16674 4.1665 4.16674ZM4.1665 17.5001H15.8332C16.3332 17.5001 16.6665 17.1667 16.6665 16.6667V9.16675H3.33317V16.6667C3.33317 17.1667 3.6665 17.5001 4.1665 17.5001Z" fill="black"/>
<mask id="mask0" mask-type="alpha" maskUnits="userSpaceOnUse" x="1" y="0" width="18" height="20">
<path fill-rule="evenodd" clip-rule="evenodd" d="M15.8332 2.49967H14.1665V1.66634C14.1665 1.16634 13.8332 0.833008 13.3332 0.833008C12.8332 0.833008 12.4998 1.16634 12.4998 1.66634V2.49967H7.49984V1.66634C7.49984 1.16634 7.1665 0.833008 6.6665 0.833008C6.1665 0.833008 5.83317 1.16634 5.83317 1.66634V2.49967H4.1665C2.74984 2.49967 1.6665 3.58301 1.6665 4.99967V16.6663C1.6665 18.083 2.74984 19.1663 4.1665 19.1663H15.8332C17.2498 19.1663 18.3332 18.083 18.3332 16.6663V4.99967C18.3332 3.58301 17.2498 2.49967 15.8332 2.49967ZM4.1665 4.16674H5.83317V5.00008C5.83317 5.50008 6.1665 5.83341 6.6665 5.83341C7.1665 5.83341 7.49984 5.50008 7.49984 5.00008V4.16674H12.4998V5.00008C12.4998 5.50008 12.8332 5.83341 13.3332 5.83341C13.8332 5.83341 14.1665 5.50008 14.1665 5.00008V4.16674H15.8332C16.3332 4.16674 16.6665 4.50008 16.6665 5.00008V7.50008H3.33317V5.00008C3.33317 4.50008 3.6665 4.16674 4.1665 4.16674ZM4.1665 17.5001H15.8332C16.3332 17.5001 16.6665 17.1667 16.6665 16.6667V9.16675H3.33317V16.6667C3.33317 17.1667 3.6665 17.5001 4.1665 17.5001Z" fill="white"/>
</mask>
<g mask="url(#mask0)">
<rect width="20" height="20" fill="black"/>
</g>
</svg>
