<svg width="20" height="20" viewBox="0 0 20 20" fill="none" xmlns="http://www.w3.org/2000/svg">
<g clip-path="url(#clip0)">
<path d="M15.9904 4.584C16.4304 4.784 16.7664 5.056 16.9984 5.4C17.2384 5.736 17.3584 6.132 17.3584 6.588C17.3584 7.1 17.2144 7.548 16.9264 7.932C16.6464 8.316 16.2464 8.612 15.7264 8.82C15.2064 9.02 14.6024 9.12 13.9144 9.12C13.2264 9.12 12.6224 9.02 12.1024 8.82C11.5904 8.612 11.1944 8.316 10.9144 7.932C10.6344 7.548 10.4944 7.1 10.4944 6.588C10.4944 6.132 10.6104 5.736 10.8424 5.4C11.0744 5.056 11.4064 4.784 11.8384 4.584C11.5024 4.4 11.2424 4.16 11.0584 3.864C10.8824 3.56 10.7944 3.212 10.7944 2.82C10.7944 2.348 10.9224 1.936 11.1784 1.584C11.4424 1.232 11.8104 0.959999 12.2824 0.767999C12.7544 0.575999 13.2984 0.48 13.9144 0.48C14.5384 0.48 15.0864 0.575999 15.5584 0.767999C16.0304 0.959999 16.3984 1.232 16.6624 1.584C16.9264 1.936 17.0584 2.348 17.0584 2.82C17.0584 3.212 16.9664 3.556 16.7824 3.852C16.5984 4.148 16.3344 4.392 15.9904 4.584ZM13.9144 1.704C13.4264 1.704 13.0384 1.808 12.7504 2.016C12.4704 2.224 12.3304 2.516 12.3304 2.892C12.3304 3.252 12.4704 3.54 12.7504 3.756C13.0384 3.964 13.4264 4.068 13.9144 4.068C14.4104 4.068 14.8024 3.964 15.0904 3.756C15.3784 3.54 15.5224 3.252 15.5224 2.892C15.5224 2.516 15.3744 2.224 15.0784 2.016C14.7904 1.808 14.4024 1.704 13.9144 1.704ZM13.9144 7.896C14.4904 7.896 14.9464 7.776 15.2824 7.536C15.6184 7.296 15.7864 6.964 15.7864 6.54C15.7864 6.124 15.6184 5.796 15.2824 5.556C14.9464 5.316 14.4904 5.196 13.9144 5.196C13.3384 5.196 12.8864 5.316 12.5584 5.556C12.2304 5.796 12.0664 6.124 12.0664 6.54C12.0664 6.964 12.2304 7.296 12.5584 7.536C12.8864 7.776 13.3384 7.896 13.9144 7.896Z" fill="white"/>
<path fill-rule="evenodd" clip-rule="evenodd" d="M16.6668 2.5H3.3335C1.91683 2.5 0.833496 3.58333 0.833496 5V15C0.833496 16.4167 1.91683 17.5 3.3335 17.5H16.6668C18.0835 17.5 19.1668 16.4167 19.1668 15V5C19.1668 3.58333 18.0835 2.5 16.6668 2.5ZM3.3335 4.16586H16.6668C17.0002 4.16586 17.2502 4.33253 17.4168 4.66586L10.0002 9.83252L2.5835 4.66586C2.75017 4.33253 3.00017 4.16586 3.3335 4.16586ZM2.50016 15C2.50016 15.5 2.8335 15.8333 3.3335 15.8333H16.6668C17.1668 15.8333 17.5002 15.5 17.5002 15V6.58333L10.5002 11.5C10.3335 11.5833 10.1668 11.6667 10.0002 11.6667C9.8335 11.6667 9.66683 11.5833 9.50016 11.5L2.50016 6.58333V15Z" fill="black"/>
<mask id="mask0" mask-type="alpha" maskUnits="userSpaceOnUse" x="0" y="2" width="20" height="16">
<path fill-rule="evenodd" clip-rule="evenodd" d="M16.6668 2.5H3.3335C1.91683 2.5 0.833496 3.58333 0.833496 5V15C0.833496 16.4167 1.91683 17.5 3.3335 17.5H16.6668C18.0835 17.5 19.1668 16.4167 19.1668 15V5C19.1668 3.58333 18.0835 2.5 16.6668 2.5ZM3.3335 4.16586H16.6668C17.0002 4.16586 17.2502 4.33253 17.4168 4.66586L10.0002 9.83252L2.5835 4.66586C2.75017 4.33253 3.00017 4.16586 3.3335 4.16586ZM2.50016 15C2.50016 15.5 2.8335 15.8333 3.3335 15.8333H16.6668C17.1668 15.8333 17.5002 15.5 17.5002 15V6.58333L10.5002 11.5C10.3335 11.5833 10.1668 11.6667 10.0002 11.6667C9.8335 11.6667 9.66683 11.5833 9.50016 11.5L2.50016 6.58333V15Z" fill="white"/>
</mask>
<g mask="url(#mask0)">
<rect width="20" height="20" fill="black"/>
</g>
</g>
<defs>
<clipPath id="clip0">
<rect width="20" height="20" fill="white"/>
</clipPath>
</defs>
</svg>
