<svg width="214" height="60" viewBox="0 0 214 60" fill="none" xmlns="http://www.w3.org/2000/svg">
<path fill-rule="evenodd" clip-rule="evenodd" d="M0 9.09091V4.54545C0 3.29026 0.4924 2.21889 1.4772 1.33133C2.462 0.443778 3.65076 0 5.04348 0H208.8C210.193 0 211.381 0.443778 212.366 1.33133C213.351 2.21889 213.843 3.29026 213.843 4.54545V55.4545C213.843 56.7097 213.351 57.7811 212.366 58.6687C211.381 59.5562 210.193 60 208.8 60H5.04348C3.65076 60 2.462 59.5562 1.4772 58.6687C0.4924 57.7811 0 56.7097 0 55.4545V9.09091Z" fill="#333333"/>
<path d="M89.5684 39.5723H86.1309L85.1348 36.457H80.1543L79.168 39.5723H75.75L80.8477 25.5684H84.5879L89.5684 39.5723ZM84.4121 34.0352L82.9082 29.3281C82.7975 28.9766 82.7194 28.5566 82.6738 28.0684H82.5957C82.5632 28.4785 82.4818 28.8854 82.3516 29.2891L80.8281 34.0352H84.4121ZM94.1387 38.4102H94.0996V44.1719H91.0137V29.5723H94.0996V31.0762H94.1387C94.9004 29.9108 95.9714 29.3281 97.3516 29.3281C98.6471 29.3281 99.6465 29.7741 100.35 30.666C101.059 31.5514 101.414 32.7591 101.414 34.2891C101.414 35.9557 101.001 37.2936 100.174 38.3027C99.3535 39.3118 98.2598 39.8164 96.8926 39.8164C95.6882 39.8164 94.7702 39.3477 94.1387 38.4102ZM94.0508 34.3086V35.1094C94.0508 35.7995 94.2331 36.3626 94.5977 36.7988C94.9622 37.235 95.4408 37.4531 96.0332 37.4531C96.7363 37.4531 97.2799 37.1829 97.6641 36.6426C98.0547 36.0957 98.25 35.3242 98.25 34.3281C98.25 32.5703 97.5664 31.6914 96.1992 31.6914C95.5677 31.6914 95.0501 31.9323 94.6465 32.4141C94.2493 32.8893 94.0508 33.5208 94.0508 34.3086ZM106.541 38.4102H106.502V44.1719H103.416V29.5723H106.502V31.0762H106.541C107.303 29.9108 108.374 29.3281 109.754 29.3281C111.049 29.3281 112.049 29.7741 112.752 30.666C113.462 31.5514 113.816 32.7591 113.816 34.2891C113.816 35.9557 113.403 37.2936 112.576 38.3027C111.756 39.3118 110.662 39.8164 109.295 39.8164C108.09 39.8164 107.173 39.3477 106.541 38.4102ZM106.453 34.3086V35.1094C106.453 35.7995 106.635 36.3626 107 36.7988C107.365 37.235 107.843 37.4531 108.436 37.4531C109.139 37.4531 109.682 37.1829 110.066 36.6426C110.457 36.0957 110.652 35.3242 110.652 34.3281C110.652 32.5703 109.969 31.6914 108.602 31.6914C107.97 31.6914 107.452 31.9323 107.049 32.4141C106.652 32.8893 106.453 33.5208 106.453 34.3086ZM121.004 39.0352V35.9102C121.57 36.3854 122.186 36.7435 122.85 36.9844C123.514 37.2188 124.184 37.3359 124.861 37.3359C125.258 37.3359 125.604 37.3001 125.896 37.2285C126.196 37.1569 126.443 37.0592 126.639 36.9355C126.84 36.8053 126.99 36.6556 127.088 36.4863C127.186 36.3105 127.234 36.1217 127.234 35.9199C127.234 35.6465 127.156 35.4023 127 35.1875C126.844 34.9727 126.629 34.7741 126.355 34.5918C126.089 34.4095 125.77 34.2337 125.398 34.0645C125.027 33.8952 124.627 33.7227 124.197 33.5469C123.104 33.0911 122.286 32.5345 121.746 31.877C121.212 31.2194 120.945 30.4251 120.945 29.4941C120.945 28.765 121.092 28.14 121.385 27.6191C121.678 27.0918 122.075 26.6589 122.576 26.3203C123.084 25.9818 123.67 25.7344 124.334 25.5781C124.998 25.4154 125.701 25.334 126.443 25.334C127.173 25.334 127.817 25.3796 128.377 25.4707C128.943 25.5553 129.464 25.6888 129.939 25.8711V28.791C129.705 28.6283 129.448 28.485 129.168 28.3613C128.895 28.2376 128.611 28.1367 128.318 28.0586C128.025 27.974 127.732 27.9121 127.439 27.873C127.153 27.834 126.88 27.8145 126.619 27.8145C126.261 27.8145 125.936 27.8503 125.643 27.9219C125.35 27.987 125.102 28.0814 124.9 28.2051C124.699 28.3288 124.542 28.4785 124.432 28.6543C124.321 28.8236 124.266 29.0156 124.266 29.2305C124.266 29.4648 124.327 29.6764 124.451 29.8652C124.575 30.0475 124.751 30.2233 124.979 30.3926C125.206 30.5553 125.483 30.7181 125.809 30.8809C126.134 31.0371 126.502 31.1999 126.912 31.3691C127.472 31.6035 127.973 31.8542 128.416 32.1211C128.865 32.3815 129.249 32.6777 129.568 33.0098C129.887 33.3418 130.132 33.7227 130.301 34.1523C130.47 34.5755 130.555 35.0703 130.555 35.6367C130.555 36.418 130.405 37.0755 130.105 37.6094C129.812 38.1367 129.412 38.5664 128.904 38.8984C128.396 39.224 127.804 39.4583 127.127 39.6016C126.456 39.7448 125.747 39.8164 124.998 39.8164C124.23 39.8164 123.497 39.7513 122.801 39.6211C122.111 39.4909 121.512 39.2956 121.004 39.0352ZM138.094 39.4551C137.638 39.696 136.951 39.8164 136.033 39.8164C133.859 39.8164 132.771 38.6868 132.771 36.4277V31.8477H131.15V29.5723H132.771V27.4141L135.848 26.5352V29.5723H138.094V31.8477H135.848V35.8906C135.848 36.9323 136.261 37.4531 137.088 37.4531C137.413 37.4531 137.749 37.3587 138.094 37.1699V39.4551ZM144.529 39.8164C142.863 39.8164 141.551 39.3509 140.594 38.4199C139.643 37.4824 139.168 36.2129 139.168 34.6113C139.168 32.9577 139.663 31.6654 140.652 30.7344C141.642 29.7969 142.98 29.3281 144.666 29.3281C146.326 29.3281 147.628 29.7969 148.572 30.7344C149.516 31.6654 149.988 32.8991 149.988 34.4355C149.988 36.0957 149.5 37.4076 148.523 38.3711C147.553 39.3346 146.222 39.8164 144.529 39.8164ZM144.607 31.6914C143.878 31.6914 143.312 31.9421 142.908 32.4434C142.505 32.9447 142.303 33.6543 142.303 34.5723C142.303 36.4928 143.077 37.4531 144.627 37.4531C146.105 37.4531 146.844 36.4668 146.844 34.4941C146.844 32.6257 146.098 31.6914 144.607 31.6914ZM158.514 32.3555C158.143 32.1536 157.71 32.0527 157.215 32.0527C156.544 32.0527 156.02 32.3001 155.643 32.7949C155.265 33.2832 155.076 33.9505 155.076 34.7969V39.5723H151.99V29.5723H155.076V31.4277H155.115C155.604 30.0736 156.482 29.3965 157.752 29.3965C158.077 29.3965 158.331 29.4355 158.514 29.5137V32.3555ZM168.865 35.4512H162.342C162.446 36.903 163.361 37.6289 165.086 37.6289C166.186 37.6289 167.153 37.3685 167.986 36.8477V39.0742C167.062 39.569 165.861 39.8164 164.383 39.8164C162.768 39.8164 161.515 39.3704 160.623 38.4785C159.731 37.5801 159.285 36.3301 159.285 34.7285C159.285 33.0684 159.767 31.7533 160.73 30.7832C161.694 29.8132 162.879 29.3281 164.285 29.3281C165.743 29.3281 166.87 29.7611 167.664 30.627C168.465 31.4928 168.865 32.668 168.865 34.1523V35.4512ZM166.004 33.5566C166.004 32.1243 165.424 31.4082 164.266 31.4082C163.771 31.4082 163.341 31.6133 162.977 32.0234C162.618 32.4336 162.4 32.9447 162.322 33.5566H166.004Z" fill="white"/>
<path fill-rule="evenodd" clip-rule="evenodd" d="M60.6958 31.117C60.7107 33.4645 62.1332 35.578 64.3139 36.493C63.8809 37.8358 63.2526 39.1089 62.4489 40.272C61.3252 41.891 60.1591 43.504 58.3223 43.537C56.5178 43.57 55.9367 42.482 53.873 42.482C51.8092 42.482 51.1656 43.5 49.4569 43.57C47.6836 43.636 46.3299 41.82 45.2012 40.207C42.8862 36.907 41.117 30.885 43.4925 26.819C44.6323 24.8142 46.7501 23.55 49.0706 23.489C50.8106 23.456 52.4517 24.644 53.5189 24.644C54.5861 24.644 56.5793 23.216 58.6794 23.426C60.6478 23.4936 62.4715 24.4686 63.6099 26.062C61.8248 27.1369 60.7239 29.0476 60.6968 31.118L60.6958 31.117ZM57.304 21.243C58.3207 20.0691 58.825 18.5427 58.7061 17C57.1719 17.1456 55.7516 17.8659 54.7348 19.014C53.7133 20.1337 53.1967 21.618 53.3045 23.124C54.8599 23.1465 56.3377 22.4515 57.304 21.243Z" fill="white"/>
</svg>
