<svg width="154" height="43" viewBox="0 0 154 43" fill="none" xmlns="http://www.w3.org/2000/svg">
<path d="M29.9287 14.9917C29.9287 14.1495 30.041 14.0637 30.8535 14.2862C32.3492 14.6962 33.845 15.103 35.3398 15.5161C35.9446 15.6824 36.0463 15.8837 35.9584 16.5161C35.4287 20.3043 34.5241 23.9919 33.0654 27.5332C31.0844 32.3415 28.2125 36.4761 23.9137 39.5175C22.2863 40.6683 20.5152 41.601 18.6457 42.2919C18.4345 42.3587 18.2071 42.3531 17.9995 42.276C13.2981 40.4646 9.54913 37.4486 6.7207 33.2875C3.80435 28.9993 2.18144 24.1995 1.19414 19.157C1.01511 18.2397 0.897526 17.3117 0.737566 16.3911C0.655997 15.9197 0.843499 15.658 1.29266 15.5352C2.8912 15.104 4.4855 14.658 6.0851 14.2279C6.61477 14.086 6.78214 14.2068 6.76943 14.7438C6.73871 15.9875 6.86054 15.9377 7.95059 15.6231C9.35528 15.2184 10.7642 14.8265 12.1805 14.4642C12.7187 14.3254 12.9613 14.0404 12.9327 13.4938C12.9221 13.3 12.8702 13.0764 12.9454 12.9175C13.0683 12.658 13.2346 12.2968 13.4602 12.2269C14.9433 11.7671 16.4348 11.355 17.937 10.9747C18.2548 10.8931 18.6446 10.9482 18.9783 11.033C20.3268 11.3741 21.6669 11.748 23.0091 12.1167C23.6627 12.2968 23.7834 12.4684 23.7972 13.176C23.8184 14.2724 23.8258 14.2724 24.8989 14.5637C26.2761 14.9366 27.6532 15.3254 29.0303 15.7025C29.8619 15.9282 29.9287 15.872 29.9287 14.9917ZM4.7747 18.3816C4.78847 18.5151 4.79059 18.6189 4.81072 18.7195C5.47492 22.0342 6.43998 25.2503 7.97496 28.2758C10.2049 32.671 13.3871 36.1149 17.884 38.2696C18.0271 38.3483 18.1878 38.3896 18.3512 38.3896C18.5145 38.3896 18.6752 38.3483 18.8183 38.2696C21.3763 37.0548 23.6501 35.3155 25.4922 33.1647C28.3217 29.8701 30.0219 26.0057 31.1554 21.8626C31.4658 20.7291 31.7073 19.5765 31.9785 18.4388C31.9103 18.3988 31.8395 18.3634 31.7666 18.3329C27.4699 17.1464 23.1754 15.9547 18.8724 14.7894C18.5124 14.7007 18.1357 14.7055 17.7781 14.8032C13.4613 15.979 9.14764 17.174 4.7747 18.3795V18.3816Z" fill="#ECECEC"/>
<path d="M36.7975 5.57423C36.6598 8.36241 36.5242 11.104 36.3844 13.9292L32.7487 12.9345C32.8345 11.6633 32.9193 10.3985 33.0051 9.10606C32.1343 9.00861 31.3155 8.92598 30.4987 8.82428C26.2762 8.29461 22.2359 7.20455 18.5875 4.92486C18.5093 4.88919 18.424 4.87189 18.338 4.87428C18.2521 4.87666 18.1679 4.89868 18.0917 4.93863C14.49 7.19714 10.4995 8.26601 6.3331 8.81263C5.47927 8.92386 4.62121 9.00225 3.69747 9.10289C3.78221 10.3603 3.86696 11.604 3.95594 12.9239L0.407164 13.9144C0.107034 11.1466 -0.0273878 8.36336 0.00461656 5.57953C1.13811 5.52974 2.22922 5.49902 3.31399 5.4291C6.63819 5.21724 9.89459 4.66214 13.0069 3.42802C15.0048 2.63457 16.8502 1.59642 18.3343 0C21.4721 3.10704 25.4319 4.34328 29.611 4.97889C31.8356 5.31893 34.1026 5.35919 36.3515 5.5361L36.7975 5.57423Z" fill="#ECECEC"/>
<path d="M18.4286 15.7269C19.1701 15.9166 19.9932 16.1136 20.8068 16.335C22.7559 16.8647 24.6998 17.4145 26.649 17.9494C27.9202 18.2979 29.1914 18.6253 30.4563 18.996C30.5707 19.0299 30.7084 19.3297 30.6756 19.4685C30.3853 20.6995 30.0972 21.9325 29.7359 23.1434C28.8418 26.137 27.5007 28.9273 25.6215 31.421C23.8428 33.7812 21.6638 35.7166 19.0101 37.0789C18.5864 37.2982 18.1987 37.3194 17.7633 37.0938C14.3014 35.3003 11.6742 32.652 9.6922 29.3193C8.46691 27.2421 7.51516 25.0153 6.86059 22.6942C6.55126 21.6158 6.29808 20.5225 6.01312 19.4367C5.93685 19.1444 6.04596 19.049 6.33092 18.9717C9.31402 18.1613 12.2929 17.3318 15.2738 16.5087C16.0355 16.2969 16.7951 16.085 17.5599 15.8805C17.812 15.8085 18.0811 15.7841 18.4286 15.7269ZM19.6521 28.2684C19.5949 27.8447 19.5546 27.4803 19.4953 27.1212C19.3618 26.3044 19.0959 25.5025 19.8957 24.8012C20.1426 24.5841 20.2135 24.0597 20.1987 23.6773C20.1754 22.9357 19.4572 22.2154 18.6817 22.0448C17.973 21.887 17.1987 22.2567 16.7622 22.9611C16.3385 23.6476 16.3766 24.4251 16.9804 25.0438C17.3501 25.422 17.419 25.7853 17.3258 26.2695C17.2018 26.9146 17.1362 27.5714 17.0387 28.2684H19.6521Z" fill="#ECECEC"/>
<path d="M93.6323 22.0948H98.9832V29.0879C98.116 29.3708 97.298 29.5676 96.5292 29.6784C95.7665 29.7952 94.9854 29.8536 94.1858 29.8536C92.15 29.8536 90.594 29.2571 89.5176 28.0639C88.4474 26.8645 87.9124 25.1455 87.9124 22.9067C87.9124 20.7294 88.5336 19.0319 89.7759 17.8141C91.0245 16.5963 92.7528 15.9874 94.9608 15.9874C96.3446 15.9874 97.6793 16.2642 98.9647 16.8177L98.0145 19.1057C97.0304 18.6137 96.0064 18.3677 94.9423 18.3677C93.7061 18.3677 92.7159 18.7828 91.9717 19.6131C91.2275 20.4434 90.8554 21.5597 90.8554 22.9621C90.8554 24.4259 91.1536 25.5452 91.7502 26.3202C92.353 27.089 93.2264 27.4734 94.3703 27.4734C94.9669 27.4734 95.5728 27.4119 96.1878 27.2889V24.4751H93.6323V22.0948Z" fill="#ECECEC"/>
<path d="M113.182 16.1812V24.9087C113.182 25.905 112.957 26.7784 112.508 27.5288C112.065 28.2791 111.422 28.8542 110.58 29.254C109.737 29.6538 108.741 29.8536 107.591 29.8536C105.856 29.8536 104.509 29.4108 103.55 28.5251C102.59 27.6333 102.111 26.4155 102.111 24.8718V16.1812H104.961V24.4382C104.961 25.4776 105.171 26.2402 105.589 26.7261C106.007 27.212 106.699 27.455 107.665 27.455C108.599 27.455 109.276 27.212 109.694 26.7261C110.119 26.2341 110.331 25.4653 110.331 24.4197V16.1812H113.182Z" fill="#ECECEC"/>
<path d="M124.741 29.6691L123.763 26.4586H118.846L117.868 29.6691H114.787L119.547 16.1258H123.044L127.823 29.6691H124.741ZM123.081 24.0599C122.177 21.1507 121.666 19.5055 121.549 19.1242C121.439 18.7428 121.359 18.4415 121.309 18.22C121.106 19.0073 120.525 20.9539 119.566 24.0599H123.081Z" fill="#ECECEC"/>
<path d="M132.389 22.1686H133.312C134.216 22.1686 134.883 22.018 135.314 21.7166C135.745 21.4152 135.96 20.9416 135.96 20.2958C135.96 19.6562 135.738 19.201 135.296 18.9304C134.859 18.6598 134.179 18.5245 133.257 18.5245H132.389V22.1686ZM132.389 24.4935V29.6691H129.529V16.1812H133.46C135.292 16.1812 136.649 16.5164 137.528 17.1868C138.408 17.851 138.847 18.8628 138.847 20.222C138.847 21.0154 138.629 21.7227 138.192 22.3439C137.756 22.959 137.138 23.4418 136.338 23.7924C138.368 26.8245 139.69 28.7835 140.305 29.6691H137.131L133.912 24.4935H132.389Z" fill="#ECECEC"/>
<path d="M153.193 22.796C153.193 25.0163 152.56 26.7169 151.293 27.8978C150.032 29.0787 148.208 29.6691 145.822 29.6691H142.003V16.1812H146.237C148.439 16.1812 150.149 16.7624 151.367 17.9248C152.584 19.0873 153.193 20.711 153.193 22.796ZM150.223 22.8698C150.223 19.9729 148.943 18.5245 146.385 18.5245H144.863V27.3074H146.09C148.845 27.3074 150.223 25.8282 150.223 22.8698Z" fill="#ECECEC"/>
<path d="M50.5101 22.3532H55.4735V29.1248C54.6616 29.3893 53.8805 29.5769 53.1302 29.6876C52.386 29.7983 51.5803 29.8536 50.713 29.8536C48.6711 29.8536 47.0966 29.2509 45.9895 28.0454C44.8824 26.8338 44.3289 25.127 44.3289 22.9251C44.3289 20.754 44.9531 19.0565 46.2017 17.8326C47.4502 16.6025 49.1693 15.9874 51.3588 15.9874C52.7673 15.9874 54.1019 16.258 55.3628 16.7993L54.5878 18.6352C53.493 18.1309 52.3983 17.8787 51.3035 17.8787C49.8643 17.8787 48.7264 18.3308 47.89 19.2349C47.0535 20.139 46.6353 21.3752 46.6353 22.9436C46.6353 24.5919 47.0105 25.8466 47.7608 26.7077C48.5173 27.5626 49.6029 27.9901 51.0175 27.9901C51.7309 27.9901 52.4936 27.9009 53.3055 27.7225V24.2444H50.5101V22.3532Z" fill="#ECECEC"/>
<path d="M64.8745 29.6691L64.4409 28.2484H64.3671C63.875 28.8696 63.3799 29.294 62.8817 29.5215C62.3835 29.7429 61.7439 29.8536 60.9628 29.8536C59.9603 29.8536 59.1761 29.583 58.6102 29.0418C58.0505 28.5005 57.7707 27.7348 57.7707 26.7446C57.7707 25.6929 58.1612 24.8994 58.9424 24.3644C59.7235 23.8293 60.9136 23.5371 62.5127 23.4879L64.2748 23.4326V22.8882C64.2748 22.2363 64.121 21.7504 63.8135 21.4306C63.5122 21.1046 63.0416 20.9416 62.402 20.9416C61.8792 20.9416 61.3779 21.0185 60.8982 21.1723C60.4185 21.326 59.9572 21.5075 59.5143 21.7166L58.8132 20.1667C59.3667 19.8776 59.9726 19.6593 60.6307 19.5116C61.2888 19.3579 61.91 19.281 62.4942 19.281C63.792 19.281 64.7699 19.5639 65.428 20.1298C66.0923 20.6956 66.4244 21.5843 66.4244 22.796V29.6691H64.8745ZM61.6455 28.193C62.4327 28.193 63.0632 27.9747 63.5368 27.538C64.0165 27.0952 64.2564 26.477 64.2564 25.6836V24.798L62.9463 24.8533C61.9253 24.8902 61.1811 25.0624 60.7137 25.37C60.2524 25.6713 60.0218 26.1357 60.0218 26.763C60.0218 27.2182 60.1571 27.5718 60.4277 27.824C60.6983 28.07 61.1042 28.193 61.6455 28.193Z" fill="#ECECEC"/>
<path d="M73.2514 28.1008C73.7803 28.1008 74.3093 28.0177 74.8382 27.8517V29.4846C74.5984 29.5892 74.2878 29.6753 73.9064 29.7429C73.5313 29.8167 73.1407 29.8536 72.7348 29.8536C70.6805 29.8536 69.6534 28.7712 69.6534 26.6062V21.1077H68.2603V20.1482L69.7549 19.3548L70.4929 17.196H71.8307V19.4655H74.7367V21.1077H71.8307V26.5693C71.8307 27.0921 71.9598 27.4796 72.2181 27.7317C72.4826 27.9778 72.827 28.1008 73.2514 28.1008Z" fill="#ECECEC"/>
<path d="M81.3423 29.8536C79.7555 29.8536 78.5131 29.3924 77.6152 28.4698C76.7233 27.5411 76.2774 26.2649 76.2774 24.6411C76.2774 22.9744 76.6926 21.6643 77.5229 20.711C78.3532 19.7577 79.4941 19.281 80.9456 19.281C82.2926 19.281 83.3566 19.69 84.1377 20.508C84.9188 21.326 85.3094 22.4516 85.3094 23.8846V25.0563H78.5101C78.5408 26.0465 78.8084 26.8092 79.3127 27.3443C79.817 27.8732 80.5274 28.1377 81.4438 28.1377C82.0466 28.1377 82.6063 28.0823 83.1229 27.9716C83.6457 27.8547 84.2054 27.6641 84.802 27.3996V29.1617C84.273 29.4139 83.7379 29.5923 83.1967 29.6968C82.6555 29.8014 82.0373 29.8536 81.3423 29.8536ZM80.9456 20.9232C80.2568 20.9232 79.7032 21.1415 79.285 21.5782C78.8729 22.0149 78.6269 22.6515 78.547 23.4879H83.1783C83.166 22.6453 82.963 22.0087 82.5694 21.5782C82.1757 21.1415 81.6345 20.9232 80.9456 20.9232Z" fill="#ECECEC"/>
</svg>
