<svg width="214" height="60" viewBox="0 0 214 60" fill="none" xmlns="http://www.w3.org/2000/svg">
<path fill-rule="evenodd" clip-rule="evenodd" d="M0 9.09091V4.54545C0 3.29026 0.4924 2.21889 1.4772 1.33133C2.462 0.443778 3.65076 0 5.04348 0H208.8C210.193 0 211.381 0.443778 212.366 1.33133C213.351 2.21889 213.843 3.29026 213.843 4.54545V55.4545C213.843 56.7097 213.351 57.7811 212.366 58.6687C211.381 59.5562 210.193 60 208.8 60H5.04348C3.65076 60 2.462 59.5562 1.4772 58.6687C0.4924 57.7811 0 56.7097 0 55.4545V9.09091Z" fill="#333333"/>
<path d="M78.6611 37.0625C77.2939 37.8503 75.5947 38.2441 73.5635 38.2441C71.3109 38.2441 69.5335 37.6224 68.2314 36.3789C66.9359 35.1289 66.2881 33.4102 66.2881 31.2227C66.2881 29.0221 66.9977 27.2285 68.417 25.8418C69.8363 24.4551 71.7243 23.7617 74.0811 23.7617C75.5654 23.7617 76.874 23.9668 78.0068 24.377V27.3359C76.9261 26.7109 75.6045 26.3984 74.042 26.3984C72.7334 26.3984 71.6657 26.8249 70.8389 27.6777C70.0186 28.5241 69.6084 29.6569 69.6084 31.0762C69.6084 32.515 69.9762 33.6283 70.7119 34.416C71.4541 35.2038 72.4535 35.5977 73.71 35.5977C74.4652 35.5977 75.0641 35.4902 75.5068 35.2754V32.541H72.7041V30.0215H78.6611V37.0625ZM85.8486 38.2441C84.182 38.2441 82.8701 37.7786 81.9131 36.8477C80.9626 35.9102 80.4873 34.6406 80.4873 33.0391C80.4873 31.3854 80.9821 30.0931 81.9717 29.1621C82.9613 28.2246 84.2992 27.7559 85.9854 27.7559C87.6455 27.7559 88.9476 28.2246 89.8916 29.1621C90.8356 30.0931 91.3076 31.3268 91.3076 32.8633C91.3076 34.5234 90.8193 35.8353 89.8428 36.7988C88.8727 37.7624 87.5413 38.2441 85.8486 38.2441ZM85.9268 30.1191C85.1976 30.1191 84.6312 30.3698 84.2275 30.8711C83.8239 31.3724 83.6221 32.082 83.6221 33C83.6221 34.9206 84.3968 35.8809 85.9463 35.8809C87.4242 35.8809 88.1631 34.8945 88.1631 32.9219C88.1631 31.0534 87.4176 30.1191 85.9268 30.1191ZM98.0752 38.2441C96.4085 38.2441 95.0967 37.7786 94.1396 36.8477C93.1891 35.9102 92.7139 34.6406 92.7139 33.0391C92.7139 31.3854 93.2087 30.0931 94.1982 29.1621C95.1878 28.2246 96.5257 27.7559 98.2119 27.7559C99.8721 27.7559 101.174 28.2246 102.118 29.1621C103.062 30.0931 103.534 31.3268 103.534 32.8633C103.534 34.5234 103.046 35.8353 102.069 36.7988C101.099 37.7624 99.7679 38.2441 98.0752 38.2441ZM98.1533 30.1191C97.4242 30.1191 96.8577 30.3698 96.4541 30.8711C96.0505 31.3724 95.8486 32.082 95.8486 33C95.8486 34.9206 96.6234 35.8809 98.1729 35.8809C99.6507 35.8809 100.39 34.8945 100.39 32.9219C100.39 31.0534 99.6442 30.1191 98.1533 30.1191ZM115.341 36.8574C115.341 38.7129 114.804 40.1484 113.729 41.1641C112.655 42.1862 111.099 42.6973 109.062 42.6973C107.714 42.6973 106.646 42.5052 105.858 42.1211V39.5234C106.887 40.1224 107.925 40.4219 108.974 40.4219C110.015 40.4219 110.823 40.1452 111.396 39.5918C111.968 39.0449 112.255 38.2995 112.255 37.3555V36.5645H112.216C111.513 37.6842 110.474 38.2441 109.101 38.2441C107.825 38.2441 106.812 37.7949 106.063 36.8965C105.315 35.998 104.94 34.7936 104.94 33.2832C104.94 31.5905 105.357 30.2461 106.19 29.25C107.024 28.2539 108.121 27.7559 109.481 27.7559C110.699 27.7559 111.61 28.2246 112.216 29.1621H112.255V28H115.341V36.8574ZM112.294 33.1953V32.4043C112.294 31.7728 112.105 31.2357 111.728 30.793C111.356 30.3438 110.871 30.1191 110.272 30.1191C109.589 30.1191 109.052 30.3861 108.661 30.9199C108.271 31.4538 108.075 32.2057 108.075 33.1758C108.075 34.0091 108.261 34.6699 108.632 35.1582C109.003 35.64 109.511 35.8809 110.155 35.8809C110.793 35.8809 111.308 35.6367 111.698 35.1484C112.095 34.6536 112.294 34.0026 112.294 33.1953ZM121.005 38H117.919V23.1953H121.005V38ZM132.587 33.8789H126.063C126.168 35.3307 127.082 36.0566 128.808 36.0566C129.908 36.0566 130.875 35.7962 131.708 35.2754V37.502C130.784 37.9967 129.582 38.2441 128.104 38.2441C126.49 38.2441 125.237 37.7982 124.345 36.9062C123.453 36.0078 123.007 34.7578 123.007 33.1562C123.007 31.4961 123.489 30.181 124.452 29.2109C125.416 28.2409 126.601 27.7559 128.007 27.7559C129.465 27.7559 130.591 28.1888 131.386 29.0547C132.187 29.9206 132.587 31.0957 132.587 32.5801V33.8789ZM129.726 31.9844C129.726 30.5521 129.146 29.8359 127.987 29.8359C127.493 29.8359 127.063 30.041 126.698 30.4512C126.34 30.8613 126.122 31.3724 126.044 31.9844H129.726ZM143.407 33.1758V38H140.253V23.9961H145.194C148.723 23.9961 150.487 25.4837 150.487 28.459C150.487 29.8652 149.979 31.0046 148.964 31.877C147.955 32.7428 146.604 33.1758 144.911 33.1758H143.407ZM143.407 26.418V30.7832H144.647C146.327 30.7832 147.167 30.0475 147.167 28.5762C147.167 27.1374 146.327 26.418 144.647 26.418H143.407ZM155.321 38H152.235V23.1953H155.321V38ZM166.239 38H163.319V36.5645H163.28C162.61 37.6842 161.617 38.2441 160.302 38.2441C159.332 38.2441 158.567 37.9707 158.007 37.4238C157.453 36.8704 157.177 36.1348 157.177 35.2168C157.177 33.2767 158.326 32.1569 160.624 31.8574L163.339 31.4961C163.339 30.4023 162.746 29.8555 161.562 29.8555C160.37 29.8555 159.237 30.2103 158.163 30.9199V28.5957C158.593 28.3743 159.179 28.179 159.921 28.0098C160.67 27.8405 161.35 27.7559 161.962 27.7559C164.813 27.7559 166.239 29.1784 166.239 32.0234V38ZM163.339 33.9375V33.2637L161.522 33.498C160.52 33.6283 160.019 34.0807 160.019 34.8555C160.019 35.207 160.139 35.4967 160.38 35.7246C160.627 35.946 160.959 36.0566 161.376 36.0566C161.955 36.0566 162.427 35.8581 162.792 35.4609C163.157 35.0573 163.339 34.5495 163.339 33.9375ZM178.202 28L174.14 38.8008C173.163 41.3984 171.692 42.6973 169.726 42.6973C168.977 42.6973 168.362 42.6126 167.88 42.4434V39.9824C168.29 40.2233 168.736 40.3438 169.218 40.3438C170.012 40.3438 170.565 39.9694 170.878 39.2207L171.405 37.9805L167.343 28H170.761L172.626 34.084C172.743 34.4616 172.834 34.9076 172.899 35.4219H172.938C172.997 35.0443 173.104 34.6048 173.261 34.1035L175.146 28H178.202Z" fill="white"/>
<path fill-rule="evenodd" clip-rule="evenodd" d="M42.3651 28.2858V32.4008H49.2303C48.9529 34.1658 47.1564 37.5748 42.3651 37.5748C38.1941 37.5076 34.8484 34.1364 34.8484 30.0009C34.8484 25.8653 38.1941 22.494 42.3651 22.4268C44.1566 22.3899 45.8907 23.0542 47.1917 24.2758L50.474 21.1378C48.2834 19.0896 45.3761 17.9648 42.3651 18.0008C35.68 18.0008 30.2607 23.3734 30.2607 30.0008C30.2607 36.6283 35.68 42.0008 42.3651 42.0008C49.3513 42.0008 53.9853 37.1318 53.9853 30.2748C53.9831 29.6074 53.9193 28.9417 53.7946 28.2858L42.3651 28.2858Z" fill="white"/>
</svg>
